<?xml version="1.0" encoding="UTF-8" standalone="no"?>
<svg width="120px" height="102px" viewBox="0 0 120 102" version="1.1" xmlns="http://www.w3.org/2000/svg" xmlns:xlink="http://www.w3.org/1999/xlink">
    <!-- Generator: Sketch 46.1 (44463) - http://www.bohemiancoding.com/sketch -->
    <title>illustration</title>
    <desc>Created with Sketch.</desc>
    <defs></defs>
    <g id="Page-1" stroke="none" stroke-width="1" fill="none" fill-rule="evenodd">
        <g id="Breeze-Wallet---Stratis-light---Tumbling---V2-after-review" transform="translate(-335.000000, -139.000000)" fill="#F7931A">
            <g id="wallet" transform="translate(-5.000000, -24.000000)">
                <g id="Left" transform="translate(190.000000, 163.000000)">
                    <g id="illustration" transform="translate(150.000000, 0.000000)">
                        <path d="M1.8750293,0 L1.92378006,0 L118.124971,0 C119.159987,0 120,0.841888155 120,1.8750293 L120,1.92378006 L120,16.8246379 L120,16.8733886 L120,16.9221394 L120,99.3746777 C120,100.409694 119.158112,101.249707 118.124971,101.249707 L118.07622,101.249707 L1.8750293,101.249707 C0.840013125,101.249707 0,100.407819 0,99.3746777 L0,99.325927 L0,16.9221394 L0,16.8733886 L0,16.8246379 L0,1.8750293 C0,0.840013125 0.841888155,0 1.8750293,0 Z M46.7932311,89.534524 C47.0013594,88.7245113 47.7344959,88.1245019 48.6082595,88.1245019 L46.7932311,89.534524 Z M15.2702386,76.4093189 C15.4783668,75.5993062 16.2115033,74.9992969 17.085267,74.9992969 L15.2702386,76.4093189 Z M28.1216894,7.50011719 L31.871748,7.50011719 L31.871748,11.2520508 L28.1216894,11.2520508 L28.1216894,7.50011719 Z M18.7484179,7.50011719 L22.4984765,7.50011719 L22.4984765,11.2520508 L18.7484179,11.2520508 L18.7484179,7.50011719 Z M9.37514649,7.50011719 L13.1252051,7.50011719 L13.1252051,11.2520508 L9.37514649,11.2520508 L9.37514649,7.50011719 Z M116.249941,18.752168 L3.75005859,18.752168 L3.75005859,97.5015235 L116.249941,97.5015235 L116.249941,18.752168 Z M3.75005859,15.0002344 L116.249941,15.0002344 L116.249941,3.75193362 L3.75005859,3.75193362 L3.75005859,15.0002344 Z M60.0246728,23.0395996 C59.6690463,23.0159246 59.3135234,23.026408 58.9564975,23.0710164 C56.1074695,23.4269645 53.696129,25.7369363 51.8652551,29.0222753 L48.202942,35.2697506 C47.9704822,35.6243744 47.9522115,36.0781974 48.1554112,36.4503605 C48.3586109,36.8225237 48.750253,37.0525358 49.174259,37.0487316 C49.598265,37.0449274 49.9857171,36.8079253 50.1822065,36.4321761 L53.8490075,30.1847007 C53.8536127,30.1757836 53.858101,30.1668066 53.862471,30.1577719 C55.4930443,27.2226361 57.4961405,25.5643408 59.2392499,25.3464978 C60.9823616,25.1281952 62.9089853,26.1167541 64.8718519,29.5788033 L70.2127258,40.5881833 L60.4241159,37.7202689 C60.0249724,37.586522 59.5846452,37.6817356 59.2764174,37.9684399 C58.9681896,38.2551443 58.8414064,38.6874401 58.9459609,39.0952049 C59.0505155,39.5029696 59.3696695,39.8209231 59.7778254,39.9239402 L72.0708117,43.5234199 C72.3660549,43.6088368 72.6832118,43.5724148 72.9514061,43.4222932 C73.2196003,43.2721717 73.4164754,43.0208646 73.4980349,42.7245326 L76.9090128,30.3776903 C77.0119439,30.0222414 76.9373924,29.6389742 76.7087268,29.3480261 C76.4800612,29.057078 76.1252698,28.8940604 75.755564,28.9100722 C75.2511959,28.931148 74.8196503,29.2789342 74.6918789,29.7673048 L72.088763,39.2013515 L66.9049751,28.5106287 C66.8951455,28.4893688 66.8846683,28.4684144 66.8735579,28.4477948 C64.9401415,25.0378797 62.5140622,23.2053237 60.0246728,23.0395996 Z M59.0821663,42.7918546 C49.5615769,42.7918546 41.8971208,50.5302136 41.8971206,60.0217803 C41.8971206,69.5167938 49.5616159,77.2606851 59.0821663,77.2606851 C68.6004072,77.2606851 76.3659495,69.5250663 76.3659495,60.0217803 C76.3643515,59.877037 76.3354196,59.733899 76.2806759,59.5998979 C76.0416576,50.3057227 68.45067,42.7918546 59.0821663,42.7918546 Z M59.0821663,45.0897777 C67.3594076,45.0897777 74.0680276,51.7706319 74.0680276,60.0217803 C74.0680276,68.2766053 67.3594466,74.9627632 59.0821663,74.9627632 C50.8022295,74.9627632 44.1950421,68.2851076 44.1950421,60.0217803 C44.1950421,51.7623594 50.8022709,45.0897777 59.0821663,45.0897777 Z M36.9063213,57.8360612 C36.8673733,57.8355792 36.8284259,57.8370779 36.7896301,57.8405514 C36.7183523,57.8459326 36.6477322,57.8579531 36.578688,57.8764564 L24.1779882,61.0989312 C23.7644107,61.1870594 23.4326561,61.4952188 23.3143093,61.901183 C23.1959625,62.3071472 23.3101498,62.7453076 23.6115806,63.0418753 C23.9130114,63.3384429 24.352971,63.4454889 24.7569568,63.3205553 L34.2358848,60.856574 L27.5665253,70.6900622 C27.5524634,70.7090906 27.5389926,70.7285487 27.5261322,70.7484087 C25.255172,74.6100666 25.0885177,77.9956961 26.8259841,80.2901712 C28.5634505,82.5846463 31.7774363,83.5163456 35.5509065,83.4543018 L42.7678177,83.5081604 C43.1814886,83.5162653 43.5675762,83.3013495 43.778643,82.9454843 C43.9897098,82.589619 43.9931618,82.1477587 43.7876808,81.7886392 C43.5821998,81.4295196 43.1995172,81.2085978 42.7857702,81.2102385 L35.5419302,81.1563798 C35.5329543,81.1562746 35.5239774,81.1562746 35.5150015,81.1563798 C32.1570364,81.2115299 29.717238,80.3032326 28.6571407,78.9033385 C27.5998635,77.5071212 27.4956705,75.3479868 29.4964208,71.9332748 L36.3677459,61.7945926 L38.7778712,71.6998932 C38.8748801,72.0991532 39.1775227,72.4163311 39.5717965,72.5319489 C39.9660703,72.6475668 40.3920757,72.5440595 40.6893406,72.2604173 C40.9866054,71.9767751 41.1099682,71.5560899 41.0129593,71.1568299 L37.9834722,58.7157356 C37.8627646,58.2138548 37.4221999,57.8540599 36.9063213,57.8360612 L36.9063213,57.8360612 Z M83.5290043,63.1051251 L83.5290043,63.114103 C83.1025786,63.1206178 82.7148367,63.3627687 82.5218549,63.7430834 C82.3288731,64.1233982 82.3623988,64.5793114 82.608937,64.9273059 L86.7021105,70.9010046 C86.7065138,70.9085359 86.7110027,70.9160169 86.7155763,70.9234461 C88.6777903,73.6480921 89.3249724,76.1659528 88.7801144,77.8351656 C88.2361044,79.5018484 86.5198876,80.8202581 82.5640563,81.1249626 L70.3339044,81.2640949 L77.0795623,73.6432527 C77.3859379,73.3089769 77.4670843,72.8257864 77.2867124,72.4097669 C77.1063405,71.9937473 76.6981832,71.7227022 76.2447709,71.7178446 C75.9055344,71.7139414 75.5819116,71.8601464 75.3606087,72.1172878 L66.8735579,81.7039309 C66.6689955,81.9338571 66.5652136,82.2362313 66.585461,82.5433174 C66.6057084,82.8504035 66.7482928,83.1365338 66.981273,83.337611 L76.7070485,91.6765538 C77.0143944,91.9705761 77.4590155,92.0707739 77.8627674,91.9370013 C78.2665192,91.8032287 78.5633511,91.45737 78.6343328,91.0379987 C78.7053145,90.6186273 78.5388339,90.1943495 78.2015939,89.9351586 L70.7737427,83.557529 L82.6538177,83.4228846 C82.6777486,83.4236327 82.7016969,83.4236327 82.7256278,83.4228846 C87.1933304,83.0830219 90.0682789,81.2849118 90.9613456,78.5487761 C91.8521581,75.8195342 90.7900815,72.654535 88.5961014,69.5994478 L88.5871258,69.5770086 L84.502928,63.6122833 C84.2852898,63.2890183 83.9186416,63.0980909 83.5290043,63.1051251 L83.5290043,63.1051251 Z" id="Shape" fill-rule="nonzero"></path>
                        <text id="Ƀ" font-family=".HelveticaNeueDeskInterface-Regular, .Helvetica Neue DeskInterface" font-size="20" font-weight="normal" line-spacing="12" letter-spacing="0.709091008">
                            <tspan x="52" y="74">Ƀ</tspan>
                        </text>
                    </g>
                </g>
            </g>
        </g>
    </g>
</svg>